<svg width="210" height="44" viewBox="0 0 210 44" fill="none" xmlns="http://www.w3.org/2000/svg">
<g clip-path="url(#clip0_1_9908)">
<path fill-rule="evenodd" clip-rule="evenodd" d="M25.7376 16.4468C25.8479 15.8755 26.1686 15.4345 26.6898 15.1038C27.1608 14.8132 27.702 14.6628 28.3034 14.6628H30.7087V15.8154H28.7343C28.3334 15.8154 28.133 15.9958 28.123 16.3466C28.123 16.5671 28.2432 16.7375 28.5239 16.8477C28.594 16.8778 29.0049 16.988 29.7666 17.1684C30.2177 17.2787 30.5985 17.4992 30.9092 17.8299C31.26 18.2007 31.4304 18.6618 31.4304 19.193C31.4304 19.2932 31.4304 19.3834 31.4203 19.4836C31.2901 20.556 30.799 21.2476 29.9571 21.5482C29.5161 21.7086 28.9248 21.7988 28.2031 21.7988H26.0884V20.5861H28.0829C28.4637 20.5861 28.7243 20.556 28.8746 20.5059C29.1252 20.4057 29.2455 20.2052 29.2455 19.9046C29.2455 19.6239 29.0651 19.4135 28.7043 19.2631C28.5439 19.203 28.2533 19.1228 27.8123 19.0426C27.3512 18.9524 27.0506 18.8823 26.9102 18.8121C26.1085 18.4112 25.7076 17.7898 25.7076 16.9279C25.7076 16.7575 25.7276 16.6072 25.7577 16.4468H25.7376Z" fill="#6D6E71"/>
<path fill-rule="evenodd" clip-rule="evenodd" d="M37.5841 18.1306L36.9227 20.4357C36.642 21.4179 36.1209 21.9191 35.3692 21.9291C34.7277 21.9291 34.2767 21.7186 34.0262 21.2977C33.9059 21.1173 33.8057 20.8667 33.7155 20.566L31.9716 14.6729H34.4872L35.9204 19.8544L36.8725 16.2664L36.3714 14.6829H38.9672L40.4305 19.8544L41.7434 14.6829H43.1265L41.5129 20.4357C41.2724 21.3077 40.7612 21.7888 39.9895 21.899C39.9194 21.899 39.8292 21.909 39.739 21.909C39.318 21.909 38.9572 21.7788 38.6666 21.5282C38.3759 21.2877 38.1855 20.9469 38.0953 20.536L37.5741 18.1306H37.5841Z" fill="#6D6E71"/>
<path fill-rule="evenodd" clip-rule="evenodd" d="M45.5118 10.6138C45.9428 10.6037 46.2736 10.734 46.5141 11.0046C46.7446 11.2652 46.8649 11.5759 46.8649 11.9367C46.8649 12.3176 46.7446 12.6283 46.5141 12.8688C46.2836 13.1094 45.9829 13.2396 45.6021 13.2396C45.0208 13.2396 44.6098 13.0191 44.3793 12.5581C44.2791 12.3577 44.219 12.1372 44.219 11.9167C44.219 11.5759 44.3292 11.2752 44.5597 11.0247C44.7902 10.7641 45.1009 10.6238 45.5118 10.6138ZM44.2691 21.7888V14.6729H46.7947V21.7888H44.2691Z" fill="#6D6E71"/>
<path fill-rule="evenodd" clip-rule="evenodd" d="M48.3883 16.4468C48.4985 15.8755 48.8192 15.4345 49.3404 15.1038C49.8115 14.8132 50.3527 14.6628 50.954 14.6628H53.3594V15.8154H51.385C50.9841 15.8154 50.7836 15.9958 50.7736 16.3466C50.7736 16.5671 50.8939 16.7375 51.1745 16.8477C51.2447 16.8778 51.6556 16.988 52.4173 17.1684C52.8683 17.2787 53.2491 17.4992 53.5598 17.8299C53.9006 18.2007 54.081 18.6618 54.081 19.193C54.081 19.2932 54.081 19.3834 54.061 19.4836C53.9307 20.556 53.4396 21.2476 52.5977 21.5482C52.1567 21.7086 51.5654 21.7988 50.8438 21.7988H48.729V20.5861H50.7235C51.1044 20.5861 51.3649 20.556 51.5052 20.5059C51.7558 20.4057 51.8761 20.2052 51.8761 19.9046C51.8761 19.6239 51.6957 19.4135 51.3349 19.2631C51.1745 19.203 50.8839 19.1228 50.4429 19.0426C49.9818 18.9524 49.6812 18.8823 49.5409 18.8121C48.7391 18.4112 48.3382 17.7898 48.3382 16.9279C48.3382 16.7575 48.3482 16.6072 48.3782 16.4468H48.3883Z" fill="#6D6E71"/>
<path fill-rule="evenodd" clip-rule="evenodd" d="M55.0031 16.4468C55.1133 15.8755 55.434 15.4345 55.9552 15.1038C56.4162 14.8132 56.9675 14.6628 57.5688 14.6628H59.9742V15.8154H57.9998C57.5989 15.8154 57.3984 15.9958 57.3884 16.3466C57.3884 16.5671 57.5087 16.7375 57.7893 16.8477C57.8595 16.8778 58.2704 16.988 59.0321 17.1684C59.4831 17.2787 59.8639 17.4992 60.1746 17.8299C60.5254 18.2007 60.6958 18.6618 60.6958 19.193C60.6958 19.2932 60.6958 19.3834 60.6758 19.4836C60.5455 20.556 60.0644 21.2476 59.2125 21.5482C58.7615 21.7086 58.1802 21.7988 57.4586 21.7988H55.3438V20.5861H57.3383C57.7091 20.5861 57.9797 20.556 58.12 20.5059C58.3706 20.4057 58.5009 20.2052 58.5009 19.9046C58.5009 19.6239 58.3205 19.4135 57.9597 19.2631C57.7993 19.203 57.5087 19.1228 57.0677 19.0426C56.6066 18.9524 56.306 18.8823 56.1657 18.8121C55.3639 18.4112 54.963 17.7898 54.963 16.9279C54.963 16.7575 54.983 16.6072 55.0131 16.4468H55.0031Z" fill="#6D6E71"/>
<path d="M67.1202 16.4869H61.5777V18.1005H67.1202V16.4869Z" fill="#6D6E71"/>
<path fill-rule="evenodd" clip-rule="evenodd" d="M68.2728 10.3231H70.8485V14.7029H71.7506C73.3241 14.7029 74.4265 15.3243 75.0479 16.557C75.3386 17.1283 75.4789 17.7698 75.4789 18.4613C75.4789 19.4535 75.1582 20.2553 74.5167 20.8667C73.8753 21.4781 73.0435 21.7887 72.0212 21.7887H68.2628V10.3231H68.2728ZM72.7929 18.3711C72.7929 17.2185 72.5123 16.4468 71.941 16.0659C71.7105 15.9156 71.49 15.8154 71.2595 15.7853L70.8586 15.7252V20.6562C70.8586 20.6562 70.9588 20.6562 71.049 20.6662C71.1292 20.6763 71.1993 20.6863 71.2394 20.6863C72.2817 20.6863 72.7929 19.9146 72.7929 18.3611V18.3711Z" fill="#6D6E71"/>
<path fill-rule="evenodd" clip-rule="evenodd" d="M76.3608 16.3566C76.3608 15.6951 76.5513 15.2141 76.9121 14.9134C77.1726 14.7029 77.5535 14.6027 78.0546 14.6027H81.5324V15.7452H79.6181C79.1571 15.7452 78.9366 15.9457 78.9366 16.3366V17.5994H81.352V18.782H78.9366V20.0649C78.9366 20.4357 79.097 20.6161 79.4277 20.6161H81.6827V21.7988H78.3052C77.7539 21.7988 77.323 21.7086 77.0023 21.5382C76.5813 21.3077 76.3608 20.8567 76.3608 20.1952V16.3566Z" fill="#6D6E71"/>
<path fill-rule="evenodd" clip-rule="evenodd" d="M85.2308 10.283V19.3533C85.2308 19.8544 85.2909 20.2052 85.4112 20.3957C85.4913 20.5259 85.6517 20.5861 85.8822 20.5861H86.9646V21.7988H85.4112C84.3889 21.7988 83.6973 21.6084 83.3365 21.2275C82.9055 20.7966 82.6951 20.1952 82.6951 19.4335V10.283H85.2408H85.2308Z" fill="#6D6E71"/>
<path fill-rule="evenodd" clip-rule="evenodd" d="M93.9302 21.7888H91.3344V18.3411H89.9413V21.7888H87.4256V14.6628H89.9413V17.1384H91.3344V14.6628H93.9302V21.7888Z" fill="#6D6E71"/>
<path fill-rule="evenodd" clip-rule="evenodd" d="M101.818 16.8277C101.968 17.2486 102.048 17.6796 102.048 18.1306C102.048 19.213 101.668 20.125 100.916 20.8567C100.204 21.5482 99.3223 21.899 98.2799 21.899C97.0772 21.899 96.1251 21.448 95.4436 20.556C94.9525 19.9246 94.7019 19.203 94.7019 18.4012C94.7019 17.2787 95.1329 16.3366 95.9948 15.5648C96.7164 14.9234 97.5683 14.6027 98.5405 14.6027C99.0316 14.6027 99.5027 14.6929 99.9537 14.8833C100.856 15.2642 101.477 15.9156 101.808 16.8277H101.818ZM98.4002 15.615C97.859 15.615 97.5483 16.0259 97.4681 16.8678C97.4381 17.1684 97.418 17.5994 97.398 18.1607V18.9324C97.3879 20.1852 97.6986 20.8166 98.3301 20.8166C98.8212 20.8166 99.1318 20.4859 99.2722 19.8144C99.3223 19.5638 99.3624 19.0326 99.3724 18.2308V17.87C99.3724 16.3666 99.0517 15.615 98.4002 15.6049V15.615Z" fill="#6D6E71"/>
<path fill-rule="evenodd" clip-rule="evenodd" d="M104.604 21.7888V15.9758H102.549V14.6729H109.064V15.9758H107.12V21.7888H104.604Z" fill="#6D6E71"/>
<path fill-rule="evenodd" clip-rule="evenodd" d="M109.946 16.3566C109.946 15.6951 110.126 15.2141 110.497 14.9134C110.758 14.7029 111.139 14.6027 111.64 14.6027H115.118V15.7452H113.213C112.762 15.7452 112.532 15.9457 112.532 16.3366V17.5994H114.947V18.782H112.532V20.0649C112.532 20.4357 112.692 20.6161 113.023 20.6161H115.278V21.7988H111.9C111.349 21.7988 110.908 21.7086 110.597 21.5382C110.177 21.3077 109.966 20.8567 109.966 20.1952V16.3566H109.946Z" fill="#6D6E71"/>
<path fill-rule="evenodd" clip-rule="evenodd" d="M118.806 10.283V19.3533C118.806 19.8544 118.866 20.2052 118.986 20.3957C119.066 20.5259 119.217 20.5861 119.447 20.5861H120.53V21.7988H118.976C117.964 21.7988 117.262 21.6084 116.892 21.2275C116.471 20.7966 116.25 20.1952 116.25 19.4335V10.283H118.796H118.806Z" fill="#6D6E71"/>
<path fill-rule="evenodd" clip-rule="evenodd" d="M127.565 10.6138C127.986 10.6037 128.327 10.734 128.568 11.0046C128.798 11.2652 128.919 11.5759 128.919 11.9367C128.919 12.3176 128.798 12.6283 128.568 12.8688C128.337 13.1094 128.037 13.2396 127.666 13.2396C127.084 13.2396 126.673 13.0191 126.443 12.5581C126.333 12.3577 126.283 12.1372 126.283 11.9167C126.283 11.5759 126.393 11.2752 126.623 11.0247C126.854 10.7641 127.175 10.6238 127.576 10.6138H127.565ZM126.313 21.7888V14.6729H128.838V21.7888H126.313Z" fill="#6D6E71"/>
<path fill-rule="evenodd" clip-rule="evenodd" d="M132.998 15.3243L134.842 18.0504V14.6428H136.185V20.3656C136.185 20.7765 136.155 21.0872 136.095 21.2676C135.994 21.5783 135.784 21.7687 135.473 21.8489C135.383 21.879 135.293 21.889 135.203 21.889C134.792 21.889 134.421 21.6484 134.11 21.1674L131.675 17.4992V21.7988H130.332V16.4368C130.332 15.3744 130.672 14.753 131.354 14.5726C131.474 14.5425 131.595 14.5225 131.725 14.5225C132.196 14.5225 132.617 14.7931 132.988 15.3343L132.998 15.3243Z" fill="#6D6E71"/>
<path fill-rule="evenodd" clip-rule="evenodd" d="M138.901 21.7888V15.9758H136.846V14.6729H143.371V15.9758H141.417V21.7888H138.901Z" fill="#6D6E71"/>
<path fill-rule="evenodd" clip-rule="evenodd" d="M144.243 16.3566C144.243 15.6951 144.433 15.2141 144.794 14.9134C145.055 14.7029 145.436 14.6027 145.937 14.6027H149.414V15.7452H147.5C147.049 15.7452 146.819 15.9457 146.819 16.3366V17.5994H149.234V18.782H146.819V20.0649C146.819 20.4357 146.979 20.6161 147.31 20.6161H149.565V21.7988H146.187C145.636 21.7988 145.205 21.7086 144.884 21.5382C144.463 21.3077 144.243 20.8567 144.243 20.1952V16.3566Z" fill="#6D6E71"/>
<path fill-rule="evenodd" clip-rule="evenodd" d="M153.083 21.7887H150.527V14.6428H153.664C155.007 14.6428 155.899 14.9635 156.35 15.5949C156.57 15.9156 156.701 16.3065 156.741 16.7675C156.741 16.8176 156.741 16.8778 156.741 16.9479C156.741 17.4791 156.54 17.9 156.129 18.2208C155.899 18.4012 155.658 18.5315 155.408 18.6217L157.553 21.7687H154.676L153.113 18.4513C153.243 18.4513 153.423 18.3711 153.644 18.2107C153.824 18.0804 153.975 17.9502 154.075 17.8098C154.255 17.5894 154.345 17.2987 154.345 16.9379C154.345 16.8778 154.345 16.7976 154.325 16.6974C154.245 16.0259 153.864 15.6751 153.173 15.6751H153.123H153.083V21.7687V21.7887Z" fill="#6D6E71"/>
<path fill-rule="evenodd" clip-rule="evenodd" d="M160.71 15.3243L162.554 18.0504V14.6428H163.897V20.3656C163.897 20.7765 163.867 21.0872 163.807 21.2676C163.706 21.5783 163.496 21.7687 163.185 21.8489C163.095 21.879 163.005 21.889 162.925 21.889C162.514 21.889 162.143 21.6484 161.832 21.1674L159.387 17.4992V21.7988H158.044V16.4368C158.044 15.3744 158.384 14.753 159.066 14.5726C159.196 14.5425 159.316 14.5225 159.447 14.5225C159.928 14.5225 160.339 14.7931 160.71 15.3343V15.3243Z" fill="#6D6E71"/>
<path fill-rule="evenodd" clip-rule="evenodd" d="M168.166 19.4335L167.535 17.2486C167.535 17.1885 167.505 17.0983 167.465 16.978C167.445 16.9479 167.415 16.9379 167.375 16.9379C167.314 16.9379 167.254 17.0281 167.194 17.2085L166.493 19.4435H168.166V19.4335ZM164.568 21.7888L166.412 15.9357C166.713 14.9835 167.224 14.5125 167.956 14.5125C168.587 14.5125 169.038 14.9334 169.319 15.7853L171.313 21.7888H168.838L168.477 20.4959H166.212L165.831 21.7888H164.588H164.568Z" fill="#6D6E71"/>
<path fill-rule="evenodd" clip-rule="evenodd" d="M173.619 21.7888V15.9758H171.554V14.6729H178.089V15.9758H176.134V21.7888H173.619Z" fill="#6D6E71"/>
<path fill-rule="evenodd" clip-rule="evenodd" d="M180.514 10.6138C180.935 10.6037 181.276 10.734 181.516 11.0046C181.747 11.2652 181.857 11.5759 181.857 11.9367C181.857 12.3176 181.737 12.6283 181.506 12.8688C181.276 13.1094 180.965 13.2396 180.594 13.2396C180.013 13.2396 179.602 13.0191 179.371 12.5581C179.261 12.3577 179.211 12.1372 179.211 11.9167C179.211 11.5759 179.321 11.2752 179.552 11.0247C179.782 10.7641 180.103 10.6238 180.504 10.6138H180.514ZM179.271 21.7888V14.6729H181.797V21.7888H179.271Z" fill="#6D6E71"/>
<path fill-rule="evenodd" clip-rule="evenodd" d="M190.246 16.8277C190.396 17.2486 190.476 17.6796 190.476 18.1306C190.476 19.213 190.095 20.125 189.344 20.8567C188.632 21.5482 187.75 21.899 186.708 21.899C185.505 21.899 184.553 21.448 183.871 20.556C183.38 19.9246 183.13 19.203 183.13 18.4012C183.13 17.2787 183.561 16.3366 184.423 15.5648C185.144 14.9234 185.996 14.6027 186.968 14.6027C187.459 14.6027 187.931 14.6929 188.382 14.8833C189.284 15.2642 189.905 15.9156 190.246 16.8277ZM186.828 15.615C186.287 15.615 185.976 16.0259 185.896 16.8678C185.866 17.1684 185.846 17.5994 185.826 18.1607V18.9324C185.816 20.1852 186.127 20.8166 186.748 20.8166C187.239 20.8166 187.55 20.4859 187.69 19.8144C187.74 19.5638 187.78 19.0326 187.79 18.2308V17.87C187.79 16.3666 187.47 15.615 186.828 15.6049V15.615Z" fill="#6D6E71"/>
<path fill-rule="evenodd" clip-rule="evenodd" d="M193.914 15.3243L195.758 18.0504V14.6428H197.101V20.3656C197.101 20.7765 197.071 21.0872 197.011 21.2676C196.911 21.5783 196.7 21.7687 196.389 21.8489C196.299 21.879 196.219 21.889 196.139 21.889C195.728 21.889 195.357 21.6484 195.036 21.1674L192.601 17.4992V21.7988H191.258V16.4368C191.258 15.3744 191.599 14.753 192.28 14.5726C192.411 14.5425 192.531 14.5225 192.661 14.5225C193.132 14.5225 193.553 14.7931 193.924 15.3343L193.914 15.3243Z" fill="#6D6E71"/>
<path fill-rule="evenodd" clip-rule="evenodd" d="M201.371 19.4335L200.739 17.2486C200.729 17.1885 200.709 17.0983 200.669 16.978C200.649 16.9479 200.619 16.9379 200.579 16.9379C200.519 16.9379 200.459 17.0281 200.399 17.2085L199.697 19.4435H201.371V19.4335ZM197.763 21.7888L199.607 15.9357C199.907 14.9835 200.419 14.5125 201.15 14.5125C201.782 14.5125 202.233 14.9334 202.513 15.7853L204.508 21.7888H202.042L201.681 20.4959H199.406L199.035 21.7888H197.783H197.763Z" fill="#6D6E71"/>
<path fill-rule="evenodd" clip-rule="evenodd" d="M207.955 10.283V19.3533C207.955 19.8544 208.015 20.2052 208.136 20.3957C208.216 20.5259 208.376 20.5861 208.607 20.5861H209.689V21.7988H208.136C207.113 21.7988 206.422 21.6084 206.051 21.2275C205.63 20.7966 205.42 20.1952 205.42 19.4335V10.283H207.955Z" fill="#6D6E71"/>
<path fill-rule="evenodd" clip-rule="evenodd" d="M0.260593 21.7787H2.11474C7.0558 21.7787 11.0648 17.6295 11.0648 12.508H3.91878C3.91878 9.11039 4.93105 5.90321 6.71504 3.22722H0.260593V21.7787Z" fill="#F04E30"/>
<path fill-rule="evenodd" clip-rule="evenodd" d="M21.879 3.23726H20.0249C15.0838 3.23726 11.0748 7.38654 11.0748 12.508H18.2208C18.2208 15.9056 17.1985 19.1128 15.4246 21.7888H21.879V3.23726Z" fill="#F04E30"/>
<path d="M23.5126 1.28208e-05C22.6106 0.0200577 21.899 0.761717 21.909 1.66374C21.929 2.56575 22.6607 3.27735 23.5627 3.26732C24.4647 3.24728 25.1763 2.50562 25.1663 1.6036C25.1563 0.701583 24.4146 -0.0100096 23.5126 1.28208e-05ZM23.5627 3.10697C22.7509 3.11699 22.0694 2.46553 22.0593 1.65371C22.0493 0.831874 22.6907 0.160372 23.5126 0.150349C24.3244 0.130304 24.9959 0.791785 25.016 1.6036C25.026 2.41542 24.3845 3.09694 23.5627 3.10697Z" fill="#6D6E71"/>
<path fill-rule="evenodd" clip-rule="evenodd" d="M23.1317 1.51339H23.7732C23.8533 1.51339 23.9135 1.48332 23.9736 1.42319C24.0237 1.36305 24.0438 1.2929 24.0538 1.21272V1.19267C24.0538 1.12251 24.0237 1.06238 23.9736 1.00225C23.9235 0.942111 23.8233 0.912044 23.703 0.902021H23.1418V1.50337L23.1317 1.51339ZM22.8912 2.50561V0.69155H23.8032C23.9235 0.69155 24.0338 0.73164 24.124 0.811819C24.2142 0.891999 24.2643 1.01227 24.2843 1.15258C24.2843 1.18265 24.2843 1.21272 24.2843 1.24278C24.2843 1.27285 24.2743 1.31294 24.2643 1.34301C24.2542 1.39312 24.2242 1.43321 24.1941 1.4733C24.154 1.51339 24.1139 1.55348 24.0438 1.59357C24.134 1.63366 24.1941 1.69379 24.2242 1.76395C24.2442 1.83411 24.2643 1.90426 24.2643 1.98444V2.08467C24.2643 2.15482 24.2643 2.22498 24.2743 2.28512C24.2743 2.34525 24.3044 2.39536 24.3545 2.42543V2.48556H24.0638C24.0638 2.48556 24.0438 2.41541 24.0438 2.38534C24.0438 2.35527 24.0338 2.31518 24.0338 2.27509C24.0338 2.26507 24.0338 2.24503 24.0338 2.22498V2.16485C24.0338 2.04458 24.0137 1.95438 23.9937 1.86417C23.9736 1.78399 23.8834 1.72386 23.7531 1.71384H23.1518V2.49559H22.9213L22.8912 2.50561Z" fill="#6D6E71"/>
<path fill-rule="evenodd" clip-rule="evenodd" d="M56.4864 43.1365H53.8906V39.6888H52.5075V43.1365H49.9919V36.0106H52.5075V38.4961H53.8906V36.0106H56.4864V43.1365Z" fill="#6D6E71"/>
<path fill-rule="evenodd" clip-rule="evenodd" d="M64.354 38.1855C64.5044 38.6064 64.5845 39.0374 64.5845 39.4884C64.5845 40.5708 64.2137 41.4828 63.452 42.2145C62.7404 42.906 61.8685 43.2568 60.8161 43.2568C59.6134 43.2568 58.6613 42.8158 57.9798 41.9238C57.4887 41.2824 57.2481 40.5608 57.2481 39.759C57.2481 38.6365 57.6791 37.6944 58.541 36.9226C59.2626 36.2812 60.1145 35.9605 61.0867 35.9605C61.5778 35.9605 62.0489 36.0507 62.4999 36.2411C63.4019 36.622 64.0233 37.2634 64.364 38.1855H64.354ZM60.9364 36.9727C60.3952 36.9727 60.0845 37.3837 60.0043 38.2256C59.9742 38.5262 59.9542 38.9572 59.9341 39.5184V40.2902C59.9341 41.553 60.2348 42.1744 60.8662 42.1744C61.3573 42.1744 61.668 41.8436 61.8083 41.1721C61.8584 40.9216 61.8985 40.3904 61.9085 39.5886V39.2278C61.9085 37.7244 61.5878 36.9727 60.9464 36.9627L60.9364 36.9727Z" fill="#6D6E71"/>
<path fill-rule="evenodd" clip-rule="evenodd" d="M67.1303 43.1366V37.3336H65.0657V36.0306H71.5903V37.3336H69.6359V43.1366H67.1303Z" fill="#6D6E71"/>
<path fill-rule="evenodd" clip-rule="evenodd" d="M72.4421 37.7144C72.4421 37.0529 72.6326 36.5718 72.9934 36.2712C73.254 36.0607 73.6348 35.9605 74.1359 35.9605H77.6037V37.093H75.6994C75.2484 37.093 75.0179 37.2935 75.0179 37.6843V38.9472H77.4333V40.1198H75.0179V41.4027C75.0179 41.7635 75.1783 41.9539 75.499 41.9539H77.754V43.1365H74.3765C73.8252 43.1365 73.3843 43.0463 73.0736 42.876C72.6426 42.6454 72.4321 42.2045 72.4321 41.543V37.7044L72.4421 37.7144Z" fill="#6D6E71"/>
<path fill-rule="evenodd" clip-rule="evenodd" d="M81.2919 31.6308V40.7011C81.2919 41.2022 81.352 41.553 81.4723 41.7434C81.5525 41.8737 81.7028 41.9338 81.9433 41.9338H83.0258V43.1365H81.4723C80.45 43.1365 79.7584 42.9461 79.3876 42.5653C78.9667 42.1243 78.7462 41.5329 78.7462 40.7712V31.6308H81.2919Z" fill="#6D6E71"/>
<path fill-rule="evenodd" clip-rule="evenodd" d="M83.527 37.7946C83.6372 37.2333 83.958 36.7823 84.4791 36.4516C84.9502 36.1509 85.4914 36.0106 86.0927 36.0106H88.5081V37.1632H86.5337C86.1428 37.1632 85.9324 37.3436 85.9224 37.6944C85.9224 37.9148 86.0426 38.0852 86.3232 38.1955C86.3934 38.2255 86.8043 38.3258 87.566 38.5162C88.017 38.6264 88.3979 38.8469 88.7086 39.1777C89.0594 39.5485 89.2298 40.0095 89.2298 40.5407C89.2298 40.6309 89.2298 40.7311 89.2097 40.8314C89.0794 41.9038 88.5983 42.5853 87.7464 42.896C87.2954 43.0563 86.7141 43.1365 85.9925 43.1365H83.8778V41.9338H85.8722C86.2431 41.9338 86.5037 41.9138 86.654 41.8537C86.9045 41.7635 87.0348 41.553 87.0348 41.2523C87.0348 40.9717 86.8544 40.7612 86.4936 40.6109C86.3333 40.5507 86.0426 40.4706 85.6016 40.3904C85.1406 40.3002 84.8399 40.23 84.6996 40.1498C83.8978 39.759 83.4969 39.1276 83.4969 38.2757C83.4969 38.1153 83.5069 37.9549 83.547 37.7946H83.527Z" fill="#6D6E71"/>
<path fill-rule="evenodd" clip-rule="evenodd" d="M98.4503 38.1454C97.9391 38.4761 97.6786 38.9572 97.6786 39.5685V39.7389C97.7688 40.5507 98.2298 41.122 99.0717 41.4628C99.2922 41.553 99.5227 41.6031 99.7532 41.6031C100.034 41.6031 100.294 41.543 100.525 41.4227C100.625 41.3726 100.675 41.3425 100.685 41.3325L98.4503 38.1353V38.1454ZM100.605 43.0864C100.014 43.2869 99.4425 43.3871 98.8813 43.3871C98.6407 43.3871 98.32 43.367 97.8991 43.3269C96.9469 43.2367 96.1151 42.8058 95.4335 42.0441C95.0727 41.6432 94.8522 41.1721 94.752 40.6109C94.7019 40.3302 94.6718 40.0797 94.6718 39.8692C94.6718 39.2278 94.9424 38.5763 95.4937 37.9148C95.5939 37.7946 95.9146 37.534 96.4258 37.1632C96.9569 36.7723 97.2777 36.5819 97.3679 36.5819L96.2253 34.9883C96.2253 34.9883 96.2253 34.9181 96.2253 34.9081C96.2253 34.2065 96.4859 33.5751 97.0071 33.0239C97.2476 32.7733 97.5984 32.5629 98.0694 32.4025C98.5004 32.2522 98.9013 32.182 99.2922 32.182C99.8434 32.182 100.345 32.3223 100.786 32.613C101.407 33.0139 101.718 33.5851 101.718 34.3469C101.718 34.7477 101.627 35.1086 101.457 35.4393C101.247 35.8402 100.996 36.1208 100.685 36.2611L102.67 39.1777C102.74 39.1075 102.8 38.9672 102.84 38.7567C102.87 38.6064 102.89 38.4059 102.89 38.1454C102.89 38.0652 102.89 37.975 102.89 37.8747C102.89 37.7745 102.89 37.6543 102.89 37.524V37.2333C102.89 37.0028 102.88 36.8023 102.86 36.632H104.233V37.1331C104.233 37.8447 104.203 38.3959 104.143 38.7768C104.063 39.318 103.902 39.759 103.662 40.0897L103.502 40.3002L105.616 43.1566H101.938L101.597 42.6154C101.247 42.8459 100.926 43.0062 100.615 43.1065L100.605 43.0864ZM99.7933 34.9783C99.9035 34.9282 100.004 34.8179 100.094 34.6375C100.194 34.4671 100.244 34.3268 100.244 34.1965C100.244 34.1464 100.244 34.0963 100.224 34.0562C100.124 33.6353 99.9035 33.4148 99.5528 33.4047C99.2621 33.4047 99.0617 33.525 98.9414 33.7956L99.7933 34.9682V34.9783Z" fill="#6D6E71"/>
<path fill-rule="evenodd" clip-rule="evenodd" d="M113.955 43.1365H111.399V36.0006H114.536C115.879 36.0006 116.771 36.3213 117.212 36.9527C117.433 37.2734 117.573 37.6643 117.603 38.1253C117.603 38.1854 117.603 38.2356 117.603 38.2957C117.603 38.8269 117.403 39.2478 116.992 39.5786C116.761 39.7489 116.531 39.8893 116.27 39.9795L118.415 43.1265H115.539L113.965 39.8091C114.095 39.8091 114.276 39.7289 114.496 39.5786C114.677 39.4483 114.827 39.308 114.927 39.1777C115.108 38.9572 115.198 38.6665 115.198 38.3057C115.198 38.2456 115.198 38.1654 115.178 38.0752C115.098 37.3937 114.717 37.0529 114.035 37.0529H113.985C113.985 37.0529 113.945 37.0529 113.935 37.0529V43.1365H113.955Z" fill="#6D6E71"/>
<path fill-rule="evenodd" clip-rule="evenodd" d="M119.207 37.7144C119.207 37.0529 119.397 36.5718 119.758 36.2712C120.019 36.0607 120.399 35.9605 120.901 35.9605H124.378V37.093H122.464C122.013 37.093 121.783 37.2935 121.783 37.6843V38.9472H124.198V40.1198H121.783V41.4027C121.783 41.7635 121.943 41.9539 122.264 41.9539H124.519V43.1365H121.141C120.59 43.1365 120.149 43.0463 119.838 42.876C119.407 42.6454 119.197 42.2045 119.197 41.543V37.7044L119.207 37.7144Z" fill="#6D6E71"/>
<path fill-rule="evenodd" clip-rule="evenodd" d="M125.23 37.7946C125.351 37.2333 125.661 36.7823 126.182 36.4516C126.653 36.1509 127.195 36.0106 127.796 36.0106H130.201V37.1632H128.227C127.826 37.1632 127.626 37.3436 127.616 37.6944C127.616 37.9148 127.746 38.0852 128.017 38.1955C128.087 38.2255 128.498 38.3258 129.259 38.5162C129.71 38.6264 130.091 38.8469 130.402 39.1777C130.743 39.5485 130.923 40.0095 130.923 40.5407C130.923 40.6309 130.923 40.7311 130.903 40.8314C130.773 41.9038 130.292 42.5853 129.44 42.896C128.989 43.0563 128.407 43.1365 127.686 43.1365H125.571V41.9338H127.566C127.946 41.9338 128.207 41.9138 128.357 41.8537C128.608 41.7635 128.728 41.553 128.728 41.2523C128.728 40.9717 128.548 40.7612 128.187 40.6109C128.027 40.5507 127.736 40.4706 127.295 40.3904C126.834 40.3002 126.533 40.23 126.393 40.1498C125.591 39.759 125.19 39.1276 125.19 38.2757C125.19 38.1153 125.2 37.9549 125.24 37.7946H125.23Z" fill="#6D6E71"/>
<path fill-rule="evenodd" clip-rule="evenodd" d="M138.69 38.1855C138.841 38.6064 138.921 39.0374 138.921 39.4884C138.921 40.5708 138.54 41.4828 137.788 42.2145C137.077 42.906 136.195 43.2568 135.153 43.2568C133.94 43.2568 132.998 42.8158 132.316 41.9238C131.825 41.2824 131.574 40.5608 131.574 39.759C131.574 38.6365 132.005 37.6944 132.867 36.9226C133.589 36.2812 134.441 35.9605 135.403 35.9605C135.894 35.9605 136.365 36.0507 136.816 36.2411C137.718 36.622 138.34 37.2634 138.68 38.1855H138.69ZM135.273 36.9727C134.732 36.9727 134.421 37.3837 134.341 38.2256C134.311 38.5262 134.291 38.9572 134.271 39.5184V40.2902C134.261 41.553 134.571 42.1744 135.203 42.1744C135.694 42.1744 136.004 41.8436 136.145 41.1721C136.195 40.9216 136.225 40.3904 136.235 39.5886V39.2278C136.235 37.7244 135.914 36.9727 135.273 36.9627V36.9727Z" fill="#6D6E71"/>
<path fill-rule="evenodd" clip-rule="evenodd" d="M142.569 43.1365H140.023V36.0006H143.16C144.503 36.0006 145.395 36.3213 145.846 36.9527C146.067 37.2734 146.197 37.6643 146.237 38.1253C146.247 38.1854 146.247 38.2356 146.247 38.2957C146.247 38.8269 146.047 39.2478 145.626 39.5786C145.395 39.7489 145.155 39.8893 144.904 39.9795L147.059 43.1265H144.183L142.609 39.8091C142.749 39.8091 142.92 39.7289 143.14 39.5786C143.321 39.4483 143.471 39.308 143.581 39.1777C143.752 38.9572 143.842 38.6665 143.842 38.3057C143.842 38.2456 143.842 38.1654 143.832 38.0752C143.742 37.3937 143.361 37.0529 142.679 37.0529H142.629C142.629 37.0529 142.589 37.0529 142.579 37.0529V43.1365H142.569Z" fill="#6D6E71"/>
<path fill-rule="evenodd" clip-rule="evenodd" d="M149.304 43.1366V37.3336H147.24V36.0306H153.764V37.3336H151.81V43.1366H149.304Z" fill="#6D6E71"/>
<path fill-rule="evenodd" clip-rule="evenodd" d="M154.436 37.7946C154.546 37.2333 154.867 36.7823 155.388 36.4516C155.859 36.1509 156.4 36.0106 157.001 36.0106H159.407V37.1632H157.432C157.031 37.1632 156.821 37.3436 156.821 37.6944C156.821 37.9148 156.951 38.0852 157.222 38.1955C157.292 38.2255 157.703 38.3258 158.465 38.5162C158.916 38.6264 159.297 38.8469 159.607 39.1777C159.948 39.5485 160.128 40.0095 160.128 40.5407C160.128 40.6309 160.128 40.7311 160.108 40.8314C159.978 41.9038 159.497 42.5853 158.645 42.896C158.194 43.0563 157.613 43.1365 156.891 43.1365H154.776V41.9338H156.771C157.142 41.9338 157.412 41.9138 157.553 41.8537C157.803 41.7635 157.923 41.553 157.923 41.2523C157.923 40.9717 157.743 40.7612 157.382 40.6109C157.222 40.5507 156.931 40.4706 156.49 40.3904C156.029 40.3002 155.739 40.23 155.588 40.1498C154.786 39.759 154.386 39.1276 154.386 38.2757C154.386 38.1153 154.396 37.9549 154.436 37.7946Z" fill="#6D6E71"/>
<path d="M210 28.4236H0V29.0249H210V28.4236Z" fill="#6D6E71"/>
</g>
<defs>
<clipPath id="clip0_1_9908">
<rect width="209.53" height="43.29" fill="white" transform="scale(1.00224)"/>
</clipPath>
</defs>
</svg>
